<svg width="313" height="313" viewBox="0 0 313 313" fill="none" xmlns="http://www.w3.org/2000/svg">
<path d="M313 156.5C313 242.933 242.933 313 156.5 313C70.0674 313 0 242.933 0 156.5C0 70.0674 70.0674 0 156.5 0C242.933 0 313 70.0674 313 156.5ZM13.8027 156.5C13.8027 235.31 77.6904 299.197 156.5 299.197C235.31 299.197 299.197 235.31 299.197 156.5C299.197 77.6904 235.31 13.8027 156.5 13.8027C77.6904 13.8027 13.8027 77.6904 13.8027 156.5Z" fill="#D9D9D9"/>
<path d="M276 156.5C276 222.498 222.498 276 156.5 276C90.502 276 37 222.498 37 156.5C37 90.502 90.502 37 156.5 37C222.498 37 276 90.502 276 156.5ZM47.5394 156.5C47.5394 216.677 96.3227 265.461 156.5 265.461C216.677 265.461 265.461 216.677 265.461 156.5C265.461 96.3227 216.677 47.5394 156.5 47.5394C96.3227 47.5394 47.5394 96.3227 47.5394 156.5Z" fill="#D9D9D9"/>
<path d="M235 156.5C235 199.854 199.854 235 156.5 235C113.146 235 78 199.854 78 156.5C78 113.146 113.146 78 156.5 78C199.854 78 235 113.146 235 156.5ZM84.9234 156.5C84.9234 196.031 116.969 228.077 156.5 228.077C196.031 228.077 228.077 196.031 228.077 156.5C228.077 116.969 196.031 84.9234 156.5 84.9234C116.969 84.9234 84.9234 116.969 84.9234 156.5Z" fill="#D9D9D9"/>
<path d="M202 156.5C202 181.629 181.629 202 156.5 202C131.371 202 111 181.629 111 156.5C111 131.371 131.371 111 156.5 111C181.629 111 202 131.371 202 156.5ZM115.013 156.5C115.013 179.413 133.587 197.987 156.5 197.987C179.413 197.987 197.987 179.413 197.987 156.5C197.987 133.587 179.413 115.013 156.5 115.013C133.587 115.013 115.013 133.587 115.013 156.5Z" fill="#D9D9D9"/>
<rect y="152" width="313" height="9" fill="#D9D9D9"/>
<rect x="49.0198" y="42.6558" width="313" height="9" transform="rotate(45 49.0198 42.6558)" fill="#D9D9D9"/>
<rect x="152" y="313" width="313" height="9" transform="rotate(-90 152 313)" fill="#D9D9D9"/>
<rect x="42.6558" y="263.98" width="313" height="9" transform="rotate(-45 42.6558 263.98)" fill="#D9D9D9"/>
</svg>
